<svg width="230" height="32" viewBox="0 0 230 32" fill="none" xmlns="http://www.w3.org/2000/svg">
<path d="M2.66602 2.66624H29.3286V29.3288L2.66602 2.66624Z" fill="white"/>
<path d="M2.66602 2.66624H22.663L15.9973 15.9975L2.66602 2.66624Z" fill="black" fill-opacity="0.15"/>
<path d="M2.66602 2.66624H15.9973L2.66602 29.3288V2.66624Z" fill="white"/>
<path d="M53.6583 7.71022H60.7275C62.1769 7.71022 63.4224 7.9272 64.4639 8.36116C65.5141 8.79512 66.3213 9.43739 66.8854 10.288C67.4496 11.1385 67.7316 12.1844 67.7316 13.4255C67.7316 14.441 67.558 15.3132 67.2109 16.0423C66.8724 16.7627 66.3907 17.3659 65.7658 17.8519C65.1496 18.3293 64.4248 18.7111 63.5916 18.9976L62.3549 19.6485H56.21L56.1839 16.6021H60.7535C61.4392 16.6021 62.0077 16.4806 62.459 16.2376C62.9103 15.9945 63.2488 15.6561 63.4745 15.2221C63.7088 14.7881 63.826 14.2847 63.826 13.7119C63.826 13.1044 63.7132 12.5793 63.4875 12.1366C63.2618 11.694 62.919 11.3555 62.459 11.1212C61.999 10.8868 61.4218 10.7696 60.7275 10.7696H57.5639V26.6656H53.6583V7.71022ZM64.2556 26.6656L59.9333 18.2164L64.0603 18.1904L68.4347 26.4834V26.6656H64.2556ZM83.4584 23.6192V26.6656H73.3688V23.6192H83.4584ZM74.6446 7.71022V26.6656H70.739V7.71022H74.6446ZM82.1435 15.4304V18.3987H73.3688V15.4304H82.1435ZM83.4454 7.71022V10.7696H73.3688V7.71022H83.4454ZM91.5561 26.6656H87.4291L87.4552 23.6192H91.5561C92.5803 23.6192 93.4438 23.3892 94.1469 22.9292C94.8499 22.4606 95.3793 21.7792 95.7352 20.8853C96.0997 19.9913 96.2819 18.9108 96.2819 17.6436V16.7193C96.2819 15.7472 96.1778 14.8923 95.9695 14.1545C95.7699 13.4168 95.4704 12.7962 95.0712 12.2929C94.6719 11.7895 94.1816 11.4119 93.6001 11.1602C93.0186 10.8998 92.3503 10.7696 91.5952 10.7696H87.351V7.71022H91.5952C92.8623 7.71022 94.021 7.9272 95.0712 8.36116C96.1301 8.78645 97.0457 9.39833 97.8182 10.1968C98.5906 10.9953 99.1851 11.95 99.6017 13.061C100.027 14.1632 100.24 15.3913 100.24 16.7453V17.6436C100.24 18.9889 100.027 20.217 99.6017 21.3279C99.1851 22.4389 98.5906 23.3936 97.8182 24.1921C97.0544 24.9819 96.1387 25.5938 95.0712 26.0277C94.0123 26.453 92.8406 26.6656 91.5561 26.6656ZM89.6423 7.71022V26.6656H85.7367V7.71022H89.6423ZM117.099 19.9089H112.269V16.8625H117.099C117.845 16.8625 118.453 16.741 118.922 16.4979C119.39 16.2462 119.733 15.8991 119.95 15.4564C120.167 15.0138 120.276 14.5147 120.276 13.9593C120.276 13.3951 120.167 12.87 119.95 12.384C119.733 11.8979 119.39 11.5074 118.922 11.2123C118.453 10.9172 117.845 10.7696 117.099 10.7696H113.623V26.6656H109.717V7.71022H117.099C118.583 7.71022 119.855 7.97928 120.914 8.51739C121.981 9.04682 122.797 9.78022 123.361 10.7176C123.925 11.6549 124.207 12.7268 124.207 13.9332C124.207 15.157 123.925 16.2159 123.361 17.1098C122.797 18.0038 121.981 18.6938 120.914 19.1798C119.855 19.6659 118.583 19.9089 117.099 19.9089ZM126.902 7.71022H133.971C135.421 7.71022 136.666 7.9272 137.708 8.36116C138.758 8.79512 139.565 9.43739 140.129 10.288C140.694 11.1385 140.976 12.1844 140.976 13.4255C140.976 14.441 140.802 15.3132 140.455 16.0423C140.116 16.7627 139.635 17.3659 139.01 17.8519C138.394 18.3293 137.669 18.7111 136.836 18.9976L135.599 19.6485H129.454L129.428 16.6021H133.998C134.683 16.6021 135.252 16.4806 135.703 16.2376C136.154 15.9945 136.493 15.6561 136.718 15.2221C136.953 14.7881 137.07 14.2847 137.07 13.7119C137.07 13.1044 136.957 12.5793 136.731 12.1366C136.506 11.694 136.163 11.3555 135.703 11.1212C135.243 10.8868 134.666 10.7696 133.971 10.7696H130.808V26.6656H126.902V7.71022ZM137.5 26.6656L133.177 18.2164L137.304 18.1904L141.679 26.4834V26.6656H137.5ZM159.553 16.7453V17.6436C159.553 19.0843 159.358 20.3776 158.968 21.5232C158.577 22.6689 158.026 23.6453 157.314 24.4524C156.603 25.2509 155.752 25.8628 154.763 26.2881C153.782 26.7134 152.693 26.926 151.495 26.926C150.306 26.926 149.217 26.7134 148.227 26.2881C147.246 25.8628 146.396 25.2509 145.675 24.4524C144.955 23.6453 144.395 22.6689 143.996 21.5232C143.605 20.3776 143.41 19.0843 143.41 17.6436V16.7453C143.41 15.2959 143.605 14.0027 143.996 12.8657C144.387 11.72 144.938 10.7436 145.649 9.93644C146.37 9.12927 147.22 8.51305 148.201 8.08777C149.191 7.66249 150.28 7.44984 151.469 7.44984C152.667 7.44984 153.756 7.66249 154.737 8.08777C155.726 8.51305 156.577 9.12927 157.288 9.93644C158.009 10.7436 158.564 11.72 158.955 12.8657C159.354 14.0027 159.553 15.2959 159.553 16.7453ZM155.609 17.6436V16.7193C155.609 15.7125 155.518 14.8272 155.335 14.0634C155.153 13.2996 154.884 12.6574 154.528 12.1366C154.172 11.6159 153.738 11.2253 153.226 10.9649C152.714 10.6959 152.128 10.5613 151.469 10.5613C150.809 10.5613 150.223 10.6959 149.711 10.9649C149.208 11.2253 148.778 11.6159 148.422 12.1366C148.075 12.6574 147.811 13.2996 147.628 14.0634C147.446 14.8272 147.355 15.7125 147.355 16.7193V17.6436C147.355 18.6417 147.446 19.527 147.628 20.2994C147.811 21.0632 148.08 21.7098 148.435 22.2392C148.791 22.76 149.225 23.1549 149.737 23.424C150.249 23.693 150.835 23.8275 151.495 23.8275C152.154 23.8275 152.74 23.693 153.252 23.424C153.764 23.1549 154.194 22.76 154.541 22.2392C154.888 21.7098 155.153 21.0632 155.335 20.2994C155.518 19.527 155.609 18.6417 155.609 17.6436ZM168.185 26.6656H164.058L164.084 23.6192H168.185C169.209 23.6192 170.073 23.3892 170.776 22.9292C171.479 22.4606 172.008 21.7792 172.364 20.8853C172.729 19.9913 172.911 18.9108 172.911 17.6436V16.7193C172.911 15.7472 172.807 14.8923 172.598 14.1545C172.399 13.4168 172.099 12.7962 171.7 12.2929C171.301 11.7895 170.81 11.4119 170.229 11.1602C169.647 10.8998 168.979 10.7696 168.224 10.7696H163.98V7.71022H168.224C169.491 7.71022 170.65 7.9272 171.7 8.36116C172.759 8.78645 173.675 9.39833 174.447 10.1968C175.22 10.9953 175.814 11.95 176.231 13.061C176.656 14.1632 176.869 15.3913 176.869 16.7453V17.6436C176.869 18.9889 176.656 20.217 176.231 21.3279C175.814 22.4389 175.22 23.3936 174.447 24.1921C173.683 24.9819 172.768 25.5938 171.7 26.0277C170.641 26.453 169.47 26.6656 168.185 26.6656ZM166.271 7.71022V26.6656H162.366V7.71022H166.271ZM190.174 7.71022H194.066V20.2343C194.066 21.6925 193.754 22.9206 193.129 23.9187C192.513 24.9168 191.658 25.6675 190.564 26.1709C189.479 26.6743 188.23 26.926 186.815 26.926C185.4 26.926 184.142 26.6743 183.039 26.1709C181.946 25.6675 181.087 24.9168 180.462 23.9187C179.846 22.9206 179.537 21.6925 179.537 20.2343V7.71022H183.443V20.2343C183.443 21.0849 183.578 21.7792 183.847 22.3174C184.116 22.8555 184.502 23.2504 185.005 23.5021C185.517 23.7538 186.121 23.8796 186.815 23.8796C187.527 23.8796 188.13 23.7538 188.625 23.5021C189.128 23.2504 189.51 22.8555 189.77 22.3174C190.039 21.7792 190.174 21.0849 190.174 20.2343V7.71022ZM208.27 20.3776H212.163C212.085 21.6534 211.733 22.786 211.108 23.7755C210.492 24.7649 209.628 25.5374 208.517 26.0928C207.415 26.6483 206.087 26.926 204.534 26.926C203.318 26.926 202.229 26.7177 201.266 26.3011C200.302 25.8758 199.478 25.2683 198.792 24.4785C198.115 23.6887 197.599 22.734 197.243 21.6143C196.887 20.4947 196.709 19.2406 196.709 17.8519V16.537C196.709 15.1483 196.892 13.8942 197.256 12.7745C197.629 11.6462 198.159 10.6872 198.844 9.89739C199.539 9.10758 200.368 8.50003 201.331 8.07475C202.294 7.64947 203.371 7.43683 204.56 7.43683C206.139 7.43683 207.472 7.72324 208.556 8.29607C209.65 8.8689 210.496 9.65871 211.095 10.6655C211.703 11.6723 212.067 12.8179 212.189 14.1025H208.283C208.24 13.3387 208.088 12.6921 207.827 12.1627C207.567 11.6246 207.172 11.221 206.643 10.9519C206.122 10.6742 205.428 10.5353 204.56 10.5353C203.909 10.5353 203.34 10.6568 202.854 10.8998C202.368 11.1429 201.96 11.5117 201.63 12.0064C201.301 12.5012 201.053 13.1261 200.888 13.8812C200.732 14.6276 200.654 15.5042 200.654 16.511V17.8519C200.654 18.8326 200.728 19.6962 200.875 20.4426C201.023 21.1804 201.249 21.8053 201.552 22.3174C201.865 22.8208 202.264 23.2026 202.75 23.463C203.245 23.7147 203.839 23.8406 204.534 23.8406C205.349 23.8406 206.022 23.7104 206.552 23.45C207.081 23.1896 207.485 22.8034 207.762 22.2913C208.049 21.7792 208.218 21.1413 208.27 20.3776ZM222.812 7.71022V26.6656H218.919V7.71022H222.812ZM228.644 7.71022V10.7696H213.178V7.71022H228.644Z" fill="white" fill-opacity="0.87"/>
</svg>
